<?xml version="1.0" encoding="UTF-8"?>
<svg width="24px" height="24px" viewBox="0 0 24 24" version="1.1" xmlns="http://www.w3.org/2000/svg" xmlns:xlink="http://www.w3.org/1999/xlink">
    <!-- Generator: Sketch 60 (88103) - https://sketch.com -->
    <title>Artboard</title>
    <desc>Created with Sketch.</desc>
    <defs>
        <path d="M7,8 L7,18 C7,18.5522847 7.44771525,19 8,19 L8,19 L16,19 C16.5522847,19 17,18.5522847 17,18 L17,18 L17,8 L7,8 Z M19,19 C19,20.1 18.1,21 17,21 L17,21 L7,21 C5.9,21 5,20.1 5,19 L5,19 L5,8 L4,8 C3.44771525,8 3,7.55228475 3,7 C3,6.44771525 3.44771525,6 4,6 L4,6 L7,6 L7.54415184,4.36754447 C7.81637994,3.55086019 8.58065762,3 9.44151844,3 L9.44151844,3 L14.5584816,3 C15.4193424,3 16.1836201,3.55086019 16.4558482,4.36754447 L16.4558482,4.36754447 L17,6 L20,6 C20.5522847,6 21,6.44771525 21,7 C21,7.55228475 20.5522847,8 20,8 L20,8 L19,8 Z M9.5,10 C9.77614237,10 10,10.2238576 10,10.5 L10,10.5 L10,16.5 C10,16.7761424 9.77614237,17 9.5,17 C9.22385763,17 9,16.7761424 9,16.5 L9,16.5 L9,10.5 C9,10.2238576 9.22385763,10 9.5,10 Z M14.5,10 C14.7761424,10 15,10.2238576 15,10.5 L15,10.5 L15,16.5 C15,16.7761424 14.7761424,17 14.5,17 C14.2238576,17 14,16.7761424 14,16.5 L14,16.5 L14,10.5 C14,10.2238576 14.2238576,10 14.5,10 Z M12,10 C12.2761424,10 12.5,10.2238576 12.5,10.5 L12.5,10.5 L12.5,16.5 C12.5,16.7761424 12.2761424,17 12,17 C11.7238576,17 11.5,16.7761424 11.5,16.5 L11.5,16.5 L11.5,10.5 C11.5,10.2238576 11.7238576,10 12,10 Z M14.5,5 L15,6 L9,6 L9.5,5 L14.5,5 Z" id="path-1"></path>
    </defs>
    <g id="Artboard" stroke="none" stroke-width="1" fill="none" fill-rule="evenodd">
        <mask id="mask-2" fill="white">
            <use xlink:href="#path-1"></use>
        </mask>
        <use id="icon" fill="#000000" xlink:href="#path-1"></use>
    </g>
</svg>